<svg xmlns="http://www.w3.org/2000/svg" viewBox="0 0 80 80">
  <circle cx="40" cy="40" r="40" fill="#E8D5F5"/>
  <circle cx="40" cy="35" r="16" fill="#F5E0D0"/>
  <path d="M24 28c0-12 8-18 16-18s16 6 16 18c0 2-1 3-2 3h-2c0-8-5-13-12-13s-12 5-12 13h-2c-1 0-2-1-2-3z" fill="#5C3D2E"/>
  <circle cx="34" cy="33" r="2" fill="#3D2B1F"/>
  <circle cx="46" cy="33" r="2" fill="#3D2B1F"/>
  <path d="M35 40q5 4 10 0" stroke="#3D2B1F" stroke-width="1.5" fill="none" stroke-linecap="round"/>
  <circle cx="40" cy="58" r="14" fill="#F5E0D0"/>
  <rect x="30" y="52" width="20" height="16" rx="4" fill="#9B6FC0"/>
</svg>
