<svg xmlns="http://www.w3.org/2000/svg" viewBox="0 0 80 80">
  <defs>
    <linearGradient id="bgGrad6" x1="0" y1="0" x2="0" y2="1">
      <stop offset="0%" stop-color="#FDF2F8"/>
      <stop offset="100%" stop-color="#FCE7F3"/>
    </linearGradient>
  </defs>
  <circle cx="40" cy="40" r="38" fill="url(#bgGrad6)"/>
  <!-- Parent silhouette (larger) -->
  <circle cx="28" cy="24" r="8" fill="#F9A8D4"/>
  <path d="M16 56 Q16 38 28 38 Q40 38 40 56" fill="#F9A8D4"/>

  <!-- Child silhouette (smaller, next to parent) -->
  <circle cx="50" cy="34" r="6" fill="#FBCFE8"/>
  <path d="M42 56 Q42 44 50 44 Q58 44 58 56" fill="#FBCFE8"/>

  <!-- Heart between them -->
  <path d="M38 28 Q38 24 41 24 Q44 24 44 28 Q44 24 47 24 Q50 24 50 28 Q50 34 44 38 Q38 34 38 28Z" fill="#EC4899" opacity="0.8"/>

  <!-- Sound waves from parent -->
  <path d="M14 20 Q10 24 14 28" stroke="#F472B6" stroke-width="1.5" fill="none" stroke-linecap="round" opacity="0.6"/>
  <path d="M10 18 Q4 24 10 30" stroke="#F472B6" stroke-width="1.5" fill="none" stroke-linecap="round" opacity="0.4"/>

  <!-- Camera icon (bottom right) -->
  <rect x="56" y="54" width="16" height="12" rx="3" fill="#fff" stroke="#EC4899" stroke-width="1.5"/>
  <circle cx="64" cy="60" r="3.5" fill="#FBCFE8" stroke="#EC4899" stroke-width="1"/>
  <circle cx="64" cy="60" r="1.5" fill="#EC4899"/>
  <rect x="60" y="53" width="6" height="3" rx="1" fill="#EC4899"/>

  <!-- Small photo frame indicator -->
  <rect x="60" y="14" width="14" height="14" rx="2" fill="#fff" stroke="#F9A8D4" stroke-width="1.5"/>
  <rect x="62" y="16" width="10" height="7" rx="1" fill="#FBCFE8"/>
  <circle cx="65" cy="19" r="1.5" fill="#F472B6"/>
  <path d="M62 23 L65 20 L68 22 L72 19" stroke="#F9A8D4" stroke-width="0.8" fill="none"/>
</svg>
